<svg xmlns="http://www.w3.org/2000/svg" viewBox="0 0 512 512" role="img" aria-labelledby="title">
  <title>Two a Day app icon</title>
  <defs>
    <linearGradient id="bg" x1="0" x2="1" y1="0" y2="1">
      <stop offset="0" stop-color="#075460"/>
      <stop offset=".5" stop-color="#053747"/>
      <stop offset="1" stop-color="#031f29"/>
    </linearGradient>
    <linearGradient id="heat" x1="0" x2="1" y1="0" y2="0">
      <stop offset="0" stop-color="#f5912f"/>
      <stop offset="1" stop-color="#f35b24"/>
    </linearGradient>
    <filter id="glow" x="-35%" y="-35%" width="170%" height="170%">
      <feGaussianBlur stdDeviation="11" result="blur"/>
      <feMerge>
        <feMergeNode in="blur"/>
        <feMergeNode in="SourceGraphic"/>
      </feMerge>
    </filter>
  </defs>
  <rect width="512" height="512" rx="112" fill="url(#bg)"/>
  <path d="M0 140c84 40 162 53 236 36 80-18 156 1 276 72v264H0z" fill="#062b35" opacity=".76"/>
  <g fill="none" stroke-linecap="round" stroke-linejoin="round">
    <path d="M78 132h86M348 132h86M78 380h86M348 380h86" stroke="#f6efe5" stroke-width="8" opacity=".26"/>
    <path d="M132 86v70M380 86v70M132 356v70M380 356v70" stroke="#f6efe5" stroke-width="8" opacity=".18"/>
    <path d="M256 106v48M256 358v48M106 256h48M358 256h48" stroke="#438982" stroke-width="12" opacity=".9"/>
    <rect x="105" y="180" width="302" height="64" rx="32" stroke="#438982" stroke-width="18"/>
    <rect x="105" y="268" width="302" height="64" rx="32" stroke="#438982" stroke-width="18"/>
    <path d="M133 212h148" stroke="url(#heat)" stroke-width="32" filter="url(#glow)"/>
    <path d="M133 300h220" stroke="url(#heat)" stroke-width="32" filter="url(#glow)"/>
    <path d="M198 256h116" stroke="#f6efe5" stroke-width="12" opacity=".85"/>
    <circle cx="382" cy="212" r="18" fill="#f6efe5" stroke="none"/>
    <circle cx="382" cy="300" r="18" fill="#f6efe5" stroke="none"/>
    <circle cx="256" cy="256" r="108" stroke="#f6efe5" stroke-width="10" opacity=".16"/>
  </g>
</svg>
