<svg xmlns="http://www.w3.org/2000/svg" viewBox="0 0 512 512" role="img" aria-labelledby="title">
  <title>Two a Day app icon</title>
  <defs>
    <linearGradient id="bg" x1="0" x2="1" y1="0" y2="1">
      <stop offset="0" stop-color="#075460"/>
      <stop offset=".48" stop-color="#053747"/>
      <stop offset="1" stop-color="#031f29"/>
    </linearGradient>
    <linearGradient id="heat" x1="0" x2="1" y1="0" y2="0">
      <stop offset="0" stop-color="#f5912f"/>
      <stop offset="1" stop-color="#f35b24"/>
    </linearGradient>
    <filter id="glow" x="-30%" y="-30%" width="160%" height="160%">
      <feGaussianBlur stdDeviation="10" result="blur"/>
      <feMerge>
        <feMergeNode in="blur"/>
        <feMergeNode in="SourceGraphic"/>
      </feMerge>
    </filter>
  </defs>
  <rect width="512" height="512" rx="112" fill="url(#bg)"/>
  <path d="M0 132c84 44 158 58 226 43 84-18 160 1 286 76v261H0z" fill="#062b35" opacity=".74"/>
  <path d="M72 138h368M72 374h368" stroke="#f6efe5" stroke-width="8" stroke-linecap="round" opacity=".2"/>
  <path d="M92 206h328" stroke="#438982" stroke-width="32" stroke-linecap="round" opacity=".9"/>
  <path d="M92 306h328" stroke="#438982" stroke-width="32" stroke-linecap="round" opacity=".9"/>
  <path d="M112 206h178" stroke="url(#heat)" stroke-width="34" stroke-linecap="round" filter="url(#glow)"/>
  <path d="M112 306h246" stroke="url(#heat)" stroke-width="34" stroke-linecap="round" filter="url(#glow)"/>
  <circle cx="401" cy="206" r="19" fill="#f6efe5"/>
  <circle cx="401" cy="306" r="19" fill="#f6efe5"/>
  <text x="256" y="276" text-anchor="middle" font-family="Arial Black, Arial, sans-serif" font-size="142" font-weight="900" fill="#f6efe5">2A</text>
  <text x="256" y="276" text-anchor="middle" font-family="Arial Black, Arial, sans-serif" font-size="142" font-weight="900" fill="none" stroke="#031f29" stroke-width="7" opacity=".45">2A</text>
  <path d="M158 404h196" stroke="#f5912f" stroke-width="14" stroke-linecap="round"/>
</svg>
